# 3ds Max Wavefront OBJ Exporter v0.97b - (c)2007 guruware
# File Created: 06.11.2016 09:13:55

mtllib weapon gun 3.mtl

#
# object Cylinder005
#

v  -3.9663 -4.4792 -27.4800
v  10.1652 -4.4792 -27.4800
v  10.1652 -11.8694 -20.7081
v  -3.9663 -11.8694 -20.7081
v  -3.9663 5.5349 -27.0428
v  10.1652 5.5349 -27.0428
v  -3.9663 12.3067 -19.6526
v  10.1652 12.3067 -19.6526
v  -3.9663 11.8695 -9.6385
v  10.1652 11.8695 -9.6385
v  -3.9663 4.4793 -2.8666
v  10.1652 4.4793 -2.8666
v  5.9263 -1.1899 27.3591
v  3.0994 1.5778 27.4800
v  0.2726 -1.1899 27.3591
v  3.0994 -3.9576 27.2383
v  -3.9663 -12.3067 -10.6940
v  10.1652 -12.3067 -10.6940
v  10.1652 -5.5348 -3.3038
v  -3.9663 -5.5348 -3.3038
v  -3.9663 -5.9347 -17.9407
v  -3.9663 -2.2396 -21.3266
v  -3.9663 2.7675 -21.1080
v  -3.9663 6.1534 -17.4129
v  -3.9663 5.9348 -12.4059
v  -3.9663 2.2397 -9.0199
v  -3.9663 -2.7674 -9.2385
v  -3.9663 -6.1533 -12.9337
v  -10.1652 -3.4956 -24.7775
v  -10.1652 -9.2629 -19.4927
v  -10.1652 0.0000 -15.1733
v  -10.1652 4.3194 -24.4363
v  -10.1652 9.6042 -18.6689
v  -10.1652 9.2630 -10.8539
v  -10.1652 3.4957 -5.5691
v  -10.1652 -4.3193 -5.9103
v  -10.1652 -9.6041 -11.6776
v  10.1652 -2.2396 -21.3266
v  10.1652 -5.9347 -17.9407
v  10.1652 2.7675 -21.1080
v  10.1652 6.1534 -17.4129
v  10.1652 5.9348 -12.4059
v  10.1652 2.2397 -9.0199
v  10.1652 -2.7674 -9.2385
v  10.1652 -6.1533 -12.9337
v  -2.2919 4.0751 -1.8630
v  8.4908 4.0751 -1.8630
v  -2.2919 -5.2196 -2.2688
v  8.4908 -5.2196 -2.2688
v  3.0994 3.7263 -1.8782
v  0.1363 2.2693 -1.9418
v  6.0626 2.2693 -1.9418
v  0.1363 -3.4138 -2.1899
v  -1.3831 -0.5722 -2.0659
v  6.0626 -3.4138 -2.1899
v  3.0994 -4.8708 -2.2536
v  7.5820 -0.5722 -2.0659
v  4.9269 0.6792 27.4408
v  4.9269 -3.0590 27.2775
v  1.2720 -3.0590 27.2775
v  1.2720 0.6792 27.4408
v  3.0994 3.5968 1.0887
v  6.0626 2.1397 1.0251
v  0.1363 2.1397 1.0251
v  -1.3831 -0.7018 0.9010
v  0.1363 -3.5433 0.7770
v  3.0994 -5.0003 0.7133
v  6.0626 -3.5433 0.7769
v  7.5820 -0.7018 0.9010
v  3.0994 1.9918 2.3069
v  4.9269 1.0932 2.2677
v  1.2720 1.0932 2.2677
v  0.2726 -0.7759 2.1861
v  1.2720 -2.6450 2.1045
v  3.0994 -3.5436 2.0652
v  4.9269 -2.6450 2.1045
v  5.9263 -0.7759 2.1861
# 77 vertices

vn 0.0000 -0.6756 -0.7373
vn 0.0000 0.4226 -0.9063
vn 0.0000 0.0436 -0.9990
vn 0.0000 0.7373 -0.6756
vn 0.0000 0.9990 0.0436
vn 0.0000 0.7698 0.6383
vn 0.0000 0.6756 0.7373
vn 0.0000 -0.0436 0.9990
vn 0.0000 -0.9397 0.3420
vn 0.0000 -0.8225 0.5687
vn 0.0000 -0.9990 -0.0436
vn -1.0000 0.0000 -0.0000
vn 1.0000 0.0000 -0.0000
vn 0.6140 -0.7153 -0.3336
vn 0.6140 -0.2699 -0.7417
vn 0.6140 -0.7417 0.2699
vn 0.6140 -0.3336 0.7153
vn 0.6140 0.2699 0.7417
vn 0.6140 0.7153 0.3336
vn 0.6140 0.7417 -0.2699
vn 0.6140 0.3336 -0.7153
vn 0.0000 0.9276 0.3736
vn -0.3524 -0.0408 0.9350
vn -0.6248 -0.0341 0.7800
vn 0.0000 -0.9566 0.2913
vn 0.3524 -0.0408 0.9350
vn 0.6248 -0.0341 0.7800
vn 0.0000 0.9089 0.4170
vn 0.7139 0.5834 0.3872
vn 0.7702 0.6372 0.0278
vn -0.7702 0.6372 0.0278
vn -0.7139 0.5834 0.3872
vn -0.9370 -0.0146 0.3491
vn -0.7702 -0.6372 -0.0278
vn -0.7155 -0.6152 0.3311
vn 0.0000 -0.9433 0.3318
vn 0.7702 -0.6372 -0.0278
vn 0.7155 -0.6152 0.3311
vn 0.9370 -0.0146 0.3491
vn 0.0000 0.8535 0.5210
vn 0.7128 0.5547 0.4292
vn -0.7128 0.5547 0.4292
vn -0.9103 -0.0226 0.4134
vn -0.7055 -0.5915 0.3904
vn 0.0000 -0.8875 0.4607
vn 0.7055 -0.5915 0.3904
vn 0.9103 -0.0226 0.4134
vn 0.0000 0.9999 0.0164
vn 0.7675 0.6409 0.0105
vn -0.7675 0.6409 0.0105
vn -1.0000 0.0065 0.0001
vn -0.7726 -0.6348 -0.0104
vn 0.0000 -0.9999 -0.0164
vn 0.7726 -0.6348 -0.0104
vn 1.0000 0.0065 0.0001
# 55 vertex normals

vt 0.8450 0.3359 0.0000
vt 0.8949 0.3234 0.0000
vt 0.9013 0.3615 0.0000
vt 0.8498 0.3660 0.0000
vt 0.8355 0.3063 0.0000
vt 0.8824 0.2869 0.0000
vt 0.8184 0.2771 0.0000
vt 0.8657 0.2532 0.0000
vt 0.8228 0.4856 0.0000
vt 0.8668 0.5113 0.0000
vt 0.8455 0.5423 0.0000
vt 0.8018 0.5120 0.0000
vt 0.8362 0.4581 0.0000
vt 0.8844 0.4765 0.0000
vt 0.8824 0.0491 0.0000
vt 0.8761 0.0653 0.0000
vt 0.8597 0.0596 0.0000
vt 0.8659 0.0433 0.0000
vt 0.8500 0.3962 0.0000
vt 0.9018 0.4003 0.0000
vt 0.8964 0.4375 0.0000
vt 0.8460 0.4258 0.0000
vt 0.8267 0.3680 0.0000
vt 0.8225 0.3418 0.0000
vt 0.8151 0.3176 0.0000
vt 0.8068 0.2984 0.0000
vt 0.7934 0.4891 0.0000
vt 0.8044 0.4712 0.0000
vt 0.8152 0.4480 0.0000
vt 0.8229 0.4220 0.0000
vt 0.8267 0.3949 0.0000
vt 0.7561 0.3639 0.0000
vt 0.7846 0.3686 0.0000
vt 0.7649 0.4001 0.0000
vt 0.7329 0.3810 0.0000
vt 0.7289 0.4096 0.0000
vt 0.7465 0.4324 0.0000
vt 0.7751 0.4358 0.0000
vt 0.7975 0.4176 0.0000
vt 0.8011 0.3922 0.0000
vt 0.9317 0.3791 0.0000
vt 0.9679 0.3847 0.0000
vt 0.9555 0.4051 0.0000
vt 0.9373 0.4024 0.0000
vt 0.9896 0.4141 0.0000
vt 0.9663 0.4199 0.0000
vt 0.9841 0.4503 0.0000
vt 0.9636 0.4379 0.0000
vt 0.9547 0.4720 0.0000
vt 0.9489 0.4488 0.0000
vt 0.9186 0.4666 0.0000
vt 0.9307 0.4461 0.0000
vt 0.9197 0.4313 0.0000
vt 0.9224 0.4131 0.0000
vt 0.8014 0.3699 0.0000
vt 0.7973 0.3474 0.0000
vt 0.7910 0.4392 0.0000
vt 0.7801 0.4605 0.0000
vt 0.7696 0.4850 0.0000
vt 0.7895 0.3247 0.0000
vt 0.7827 0.2990 0.0000
vt 0.8427 0.4583 0.0000
vt 0.8798 0.4711 0.0000
vt 0.8518 0.4290 0.0000
vt 0.8896 0.4393 0.0000
vt 0.8614 0.4641 0.0000
vt 0.8528 0.4555 0.0000
vt 0.8732 0.4625 0.0000
vt 0.8589 0.4365 0.0000
vt 0.8507 0.4443 0.0000
vt 0.8794 0.4430 0.0000
vt 0.8707 0.4347 0.0000
vt 0.8816 0.4544 0.0000
vt 0.8818 0.0585 0.0000
vt 0.8749 0.0436 0.0000
vt 0.8602 0.0504 0.0000
vt 0.8676 0.0644 0.0000
vt 0.8602 0.1980 0.0000
vt 0.8616 0.1849 0.0000
vt 0.8742 0.1857 0.0000
vt 0.8737 0.1991 0.0000
vt 0.8467 0.1962 0.0000
vt 0.8492 0.1830 0.0000
vt 0.8333 0.1936 0.0000
vt 0.8371 0.1811 0.0000
vt 0.8199 0.1887 0.0000
vt 0.8255 0.1769 0.0000
vt 0.8069 0.1819 0.0000
vt 0.8133 0.1704 0.0000
vt 0.9014 0.1979 0.0000
vt 0.8987 0.1851 0.0000
vt 0.9121 0.1816 0.0000
vt 0.9156 0.1943 0.0000
vt 0.8873 0.1996 0.0000
vt 0.8864 0.1866 0.0000
vt 0.8626 0.1761 0.0000
vt 0.8741 0.1769 0.0000
vt 0.8513 0.1745 0.0000
vt 0.8398 0.1724 0.0000
vt 0.8291 0.1693 0.0000
vt 0.8202 0.1660 0.0000
vt 0.8969 0.1769 0.0000
vt 0.9063 0.1757 0.0000
vt 0.8857 0.1775 0.0000
vt 0.8843 0.0658 0.0000
vt 0.8590 0.0623 0.0000
vt 0.8503 0.0598 0.0000
vt 0.8417 0.0577 0.0000
vt 0.9110 0.0654 0.0000
vt 0.9021 0.0655 0.0000
vt 0.8931 0.0659 0.0000
# 111 texture coords

g Cylinder005
usemtl _Weaponwire_135006006
s 1
f 1/1/1 2/2/1 3/3/1 4/4/1 
s 2
f 5/5/2 6/6/2 2/2/3 1/1/3 
f 7/7/4 8/8/4 6/6/2 5/5/2 
s 1
f 9/9/5 10/10/5 8/11/5 7/12/5 
s 2
f 11/13/6 12/14/6 10/10/7 9/9/7 
s 1
f 13/15/8 14/16/8 15/17/8 16/18/8 
s 2
f 17/19/9 18/20/9 19/21/10 20/22/10 
f 4/4/11 3/3/11 18/20/9 17/19/9 
s 4
f 4/4/12 21/23/12 22/24/12 1/1/12 
f 1/1/12 22/24/12 23/25/12 5/5/12 
f 5/5/12 23/25/12 24/26/12 7/7/12 
f 7/12/12 24/27/12 25/28/12 9/9/12 
f 9/9/12 25/28/12 26/29/12 11/13/12 
f 11/13/12 26/29/12 27/30/12 20/22/12 
f 20/22/12 27/30/12 28/31/12 17/19/12 
f 17/19/12 28/31/12 21/23/12 4/4/12 
s 1
f 29/32/12 30/33/12 31/34/12 
f 32/35/12 29/32/12 31/34/12 
f 33/36/12 32/35/12 31/34/12 
f 34/37/12 33/36/12 31/34/12 
f 35/38/12 34/37/12 31/34/12 
f 36/39/12 35/38/12 31/34/12 
f 37/40/12 36/39/12 31/34/12 
f 30/33/12 37/40/12 31/34/12 
s 4
f 3/41/13 2/42/13 38/43/13 39/44/13 
f 6/45/13 40/46/13 38/43/13 2/42/13 
f 8/47/13 41/48/13 40/46/13 6/45/13 
f 10/49/13 42/50/13 41/48/13 8/47/13 
f 12/51/13 43/52/13 42/50/13 10/49/13 
f 19/21/13 44/53/13 43/52/13 12/51/13 
f 19/21/13 18/20/13 45/54/13 44/53/13 
f 45/54/13 18/20/13 3/41/13 39/44/13 
s 2
f 21/23/14 30/55/14 29/56/15 22/24/15 
f 37/40/16 30/55/14 21/23/14 28/31/16 
f 36/39/17 37/40/16 28/31/16 27/30/17 
f 27/30/17 26/29/18 35/57/18 36/39/17 
f 26/29/18 25/28/19 34/58/19 35/57/18 
f 25/28/19 24/27/20 33/59/20 34/58/19 
f 24/26/20 23/25/21 32/60/21 33/61/20 
f 23/25/21 22/24/15 29/56/15 32/60/21 
f 12/14/6 11/13/6 46/62/22 47/63/22 
s 1
f 48/64/23 46/62/23 11/13/24 20/22/24 
s 2
f 19/21/10 49/65/25 48/64/25 20/22/10 
s 1
f 47/63/26 49/65/26 19/21/27 12/14/27 
f 50/66/8 47/63/26 46/62/23 51/67/8 
f 47/63/26 50/66/8 52/68/8 
f 48/64/23 53/69/8 54/70/8 46/62/23 
f 46/62/23 54/70/8 51/67/8 
f 49/65/26 55/71/8 56/72/8 48/64/23 
f 48/64/23 56/72/8 53/69/8 
f 52/68/8 57/73/8 49/65/26 47/63/26 
f 49/65/26 57/73/8 55/71/8 
f 13/15/8 58/74/8 14/16/8 
f 16/18/8 59/75/8 13/15/8 
f 15/17/8 60/76/8 16/18/8 
f 14/16/8 61/77/8 15/17/8 
s 2
f 50/78/5 62/79/28 63/80/29 52/81/30 
f 50/78/5 51/82/31 64/83/32 62/79/28 
f 54/84/12 65/85/33 64/83/32 51/82/31 
f 54/84/12 53/86/34 66/87/35 65/85/33 
f 66/87/35 53/86/34 56/88/11 67/89/36 
f 55/90/37 68/91/38 67/92/36 56/93/11 
f 55/90/37 57/94/13 69/95/39 68/91/38 
f 57/94/13 52/81/30 63/80/29 69/95/39 
f 63/80/29 62/79/28 70/96/40 71/97/41 
f 72/98/42 70/96/40 62/79/28 64/83/32 
f 73/99/43 72/98/42 64/83/32 65/85/33 
f 66/87/35 74/100/44 73/99/43 65/85/33 
f 74/100/44 66/87/35 67/89/36 75/101/45 
f 68/91/38 76/102/46 75/103/45 67/92/36 
f 77/104/47 76/102/46 68/91/38 69/95/39 
f 77/104/47 69/95/39 63/80/29 71/97/41 
f 71/97/41 70/96/40 14/16/48 58/105/49 
f 61/77/50 14/16/48 70/96/40 72/98/42 
f 72/98/42 73/99/43 15/106/51 61/77/50 
f 60/107/52 15/106/51 73/99/43 74/100/44 
f 16/108/53 60/107/52 74/100/44 75/101/45 
f 16/109/53 75/103/45 76/102/46 59/110/54 
f 76/102/46 77/104/47 13/111/55 59/110/54 
f 58/105/49 13/111/55 77/104/47 71/97/41 
s 4
f 41/48/13 42/50/13 39/44/13 40/46/13 
f 42/50/13 43/52/13 44/53/13 39/44/13 
f 44/53/13 45/54/13 39/44/13 
f 38/43/13 40/46/13 39/44/13 
# 66 polygons - 18 triangles

