# 3ds Max Wavefront OBJ Exporter v0.97b - (c)2007 guruware
# File Created: 12.11.2016 13:20:18

mtllib weapon Body 2.mtl

#
# object Cylinder002
#

v  80.1712 -47.9829 -47.5029
v  68.8320 -47.9829 -58.8471
v  68.8320 -45.3311 -58.8471
v  80.1712 -45.3311 -47.5029
v  2.0358 -19.8088 -46.5442
v  40.5909 -19.8088 -46.5356
v  40.5909 -43.2920 -46.5356
v  2.0358 -43.2920 -46.5442
v  -26.1999 -45.3311 -58.8683
v  -26.1999 -47.9829 -58.8683
v  -37.5442 -47.9829 -47.5291
v  -37.5442 -45.3311 -47.5291
v  -25.2327 -43.2920 -19.2878
v  -25.2413 -43.2920 19.2671
v  -25.2413 -19.8088 19.2671
v  -25.2327 -19.8088 -19.2878
v  -37.5652 -47.9829 47.5029
v  -26.2261 -47.9829 58.8471
v  -26.2261 -45.3311 58.8471
v  -37.5652 -45.3311 47.5029
v  2.0152 -43.2920 46.5357
v  40.5701 -43.2920 46.5442
v  40.5701 -19.8088 46.5442
v  2.0152 -19.8088 46.5357
v  68.8058 -47.9829 58.8683
v  80.1501 -47.9829 47.5291
v  80.1501 -45.3311 47.5291
v  68.8058 -45.3311 58.8683
v  67.8472 -43.2920 -19.2671
v  67.8472 -19.8088 -19.2671
v  67.8386 -19.8088 19.2879
v  67.8386 -43.2920 19.2879
v  38.6263 -19.8088 -41.7956
v  63.1063 -19.8088 -17.3046
v  3.9984 -19.8088 -41.8033
v  -20.4926 -19.8088 -17.3232
v  -20.5004 -19.8088 17.3046
v  3.9798 -19.8088 41.7956
v  38.6075 -19.8088 41.8034
v  63.0986 -19.8088 17.3232
v  41.8822 -21.6355 -45.2437
v  41.8822 -41.4653 -45.2437
v  66.5558 -21.6355 -20.5591
v  66.5558 -41.4653 -20.5591
v  0.7439 -41.4653 -45.2528
v  0.7439 -21.6355 -45.2528
v  -23.9407 -41.4653 -20.5792
v  -23.9407 -21.6355 -20.5792
v  -23.9499 -41.4653 20.5591
v  -23.9499 -21.6355 20.5591
v  0.7238 -21.6355 45.2437
v  0.7238 -41.4653 45.2437
v  41.8620 -21.6355 45.2529
v  41.8620 -41.4653 45.2529
v  66.5466 -21.6355 20.5793
v  66.5466 -41.4653 20.5793
v  53.6078 -43.0094 -51.7511
v  53.6078 -30.5536 -51.7511
v  73.0685 -30.5536 -32.2817
v  73.0685 -43.0094 -32.2817
v  -10.9788 -43.0094 -51.7655
v  -10.9788 -30.5536 -51.7655
v  -30.4481 -30.5536 -32.3048
v  -30.4481 -43.0094 -32.3048
v  -30.4624 -43.0094 32.2818
v  -30.4624 -30.5536 32.2818
v  -11.0018 -43.0094 51.7511
v  -11.0018 -30.5536 51.7511
v  53.5847 -43.0094 51.7655
v  53.5847 -30.5536 51.7655
v  73.0540 -30.5536 32.3048
v  73.0540 -43.0094 32.3048
v  54.8992 -32.3803 -50.4591
v  54.8992 -41.1827 -50.4591
v  71.7770 -32.3803 -33.5737
v  71.7770 -41.1827 -33.5737
v  -12.2708 -32.3803 -50.4741
v  -12.2708 -41.1827 -50.4741
v  -29.1562 -41.1827 -33.5962
v  -29.1562 -32.3803 -33.5962
v  -29.1711 -41.1827 33.5737
v  -29.1711 -32.3803 33.5737
v  -12.2932 -41.1827 50.4591
v  -12.2932 -32.3803 50.4591
v  54.8768 -41.1827 50.4741
v  54.8768 -32.3803 50.4741
v  71.7621 -41.1827 33.5962
v  71.7621 -32.3803 33.5962
v  64.7045 -45.3311 -54.7214
v  64.7045 -47.9829 -54.7214
v  76.0437 -45.3311 -43.3772
v  76.0437 -47.9829 -43.3772
v  -22.0742 -45.3311 -54.7408
v  -22.0742 -47.9829 -54.7408
v  -33.4185 -47.9829 -43.4016
v  -33.4185 -45.3311 -43.4016
v  -33.4378 -47.9829 43.3772
v  -33.4378 -45.3311 43.3772
v  -22.0986 -47.9829 54.7215
v  -22.0986 -45.3311 54.7215
v  64.6801 -47.9829 54.7408
v  64.6801 -45.3311 54.7408
v  76.0244 -47.9829 43.4016
v  76.0244 -45.3311 43.4016
# 104 vertices

vn 0.7073 0.0000 -0.7069
vn -0.3825 0.0000 -0.9240
vn 0.0002 0.0000 -1.0000
vn -0.2525 0.0000 -0.9676
vn -0.7069 0.0000 -0.7073
vn -1.0000 0.0000 -0.0002
vn -0.9676 0.0000 0.2525
vn -0.9240 0.0000 0.3825
vn -0.7073 0.0000 0.7069
vn -0.0002 0.0000 1.0000
vn 0.2525 0.0000 0.9676
vn 0.3825 0.0000 0.9240
vn 0.7069 0.0000 0.7073
vn 0.9676 0.0000 -0.2525
vn 0.9240 0.0000 -0.3825
vn 1.0000 0.0000 0.0002
vn 0.0000 1.0000 -0.0000
vn -0.4853 0.0000 -0.8744
vn 0.4023 0.8224 -0.4022
vn 0.8742 0.0000 0.4856
vn 0.4856 0.0000 -0.8742
vn -0.8744 0.0000 0.4853
vn -0.4022 0.8224 -0.4023
vn -0.8742 0.0000 -0.4856
vn 0.4853 0.0000 0.8744
vn -0.4023 0.8224 0.4022
vn -0.4856 0.0000 0.8742
vn 0.8744 0.0000 -0.4853
vn 0.4022 0.8224 0.4023
vn 0.7003 0.1396 -0.7000
vn -0.7000 0.1396 -0.7003
vn -0.7003 0.1396 0.7000
vn 0.7000 0.1396 0.7003
vn -0.3987 0.0000 -0.9171
vn -0.5279 0.0000 -0.8493
vn -0.5967 0.0000 -0.8025
vn 0.5609 0.6092 -0.5606
vn 0.9169 0.0000 0.3991
vn 0.8022 0.0000 0.5970
vn 0.8491 0.0000 0.5282
vn 0.5282 0.0000 -0.8491
vn 0.3991 0.0000 -0.9169
vn 0.5970 0.0000 -0.8022
vn -0.8025 0.0000 0.5967
vn -0.9171 0.0000 0.3987
vn -0.8493 0.0000 0.5279
vn -0.5606 0.6092 -0.5609
vn -0.9169 0.0000 -0.3991
vn -0.8022 0.0000 -0.5970
vn -0.8491 0.0000 -0.5282
vn 0.5967 0.0000 0.8025
vn 0.3987 0.0000 0.9171
vn 0.5279 0.0000 0.8493
vn -0.5609 0.6092 0.5606
vn -0.3991 0.0000 0.9169
vn -0.5970 0.0000 0.8022
vn -0.5282 0.0000 0.8491
vn 0.8025 0.0000 -0.5967
vn 0.9171 0.0000 -0.3987
vn 0.8493 0.0000 -0.5279
vn 0.5606 0.6092 0.5609
# 61 vertex normals

vt 0.0058 0.0483 0.0000
vt 0.0456 0.0080 0.0000
vt 0.0471 0.0144 0.0000
vt 0.0121 0.0497 0.0000
vt 0.3261 0.0931 0.0000
vt 0.1870 0.0938 0.0000
vt 0.1930 0.0165 0.0000
vt 0.3192 0.0158 0.0000
vt 0.4651 0.0121 0.0000
vt 0.4666 0.0058 0.0000
vt 0.5068 0.0456 0.0000
vt 0.5004 0.0471 0.0000
vt 0.4983 0.1930 0.0000
vt 0.4990 0.3192 0.0000
vt 0.4217 0.3261 0.0000
vt 0.4210 0.1870 0.0000
vt 0.5091 0.4665 0.0000
vt 0.4693 0.5068 0.0000
vt 0.4677 0.5004 0.0000
vt 0.5027 0.4651 0.0000
vt 0.3219 0.4983 0.0000
vt 0.1956 0.4990 0.0000
vt 0.1887 0.4217 0.0000
vt 0.3279 0.4210 0.0000
vt 0.0483 0.5091 0.0000
vt 0.0080 0.4693 0.0000
vt 0.0144 0.4677 0.0000
vt 0.0497 0.5027 0.0000
vt 0.0159 0.1956 0.0000
vt 0.0931 0.1887 0.0000
vt 0.0939 0.3278 0.0000
vt 0.0165 0.3218 0.0000
vt 0.1944 0.1077 0.0000
vt 0.1070 0.1960 0.0000
vt 0.3188 0.1070 0.0000
vt 0.4071 0.1944 0.0000
vt 0.4078 0.3188 0.0000
vt 0.3204 0.4071 0.0000
vt 0.1960 0.4078 0.0000
vt 0.1077 0.3204 0.0000
vt 0.1714 0.0898 0.0000
vt 0.1621 0.0240 0.0000
vt 0.1670 0.0179 0.0000
vt 0.0889 0.1732 0.0000
vt 0.0170 0.1696 0.0000
vt 0.0230 0.1646 0.0000
vt 0.3453 0.0170 0.0000
vt 0.3502 0.0230 0.0000
vt 0.3416 0.0889 0.0000
vt 0.4908 0.1621 0.0000
vt 0.4969 0.1670 0.0000
vt 0.4250 0.1714 0.0000
vt 0.4978 0.3452 0.0000
vt 0.4918 0.3502 0.0000
vt 0.4260 0.3416 0.0000
vt 0.3434 0.4250 0.0000
vt 0.3528 0.4908 0.0000
vt 0.3479 0.4969 0.0000
vt 0.1732 0.4259 0.0000
vt 0.1696 0.4978 0.0000
vt 0.1646 0.4918 0.0000
vt 0.0898 0.3434 0.0000
vt 0.0241 0.3527 0.0000
vt 0.0180 0.3478 0.0000
vt 0.1152 0.0220 0.0000
vt 0.1216 0.0614 0.0000
vt 0.0599 0.1237 0.0000
vt 0.0205 0.1177 0.0000
vt 0.3971 0.0205 0.0000
vt 0.3911 0.0599 0.0000
vt 0.4535 0.1216 0.0000
vt 0.4928 0.1152 0.0000
vt 0.4943 0.3971 0.0000
vt 0.4549 0.3911 0.0000
vt 0.3997 0.4928 0.0000
vt 0.3933 0.4535 0.0000
vt 0.1177 0.4943 0.0000
vt 0.1237 0.4549 0.0000
vt 0.0614 0.3933 0.0000
vt 0.0220 0.3997 0.0000
vt 0.1116 0.0572 0.0000
vt 0.1055 0.0286 0.0000
vt 0.0556 0.1138 0.0000
vt 0.0270 0.1080 0.0000
vt 0.4010 0.0556 0.0000
vt 0.4068 0.0270 0.0000
vt 0.4862 0.1055 0.0000
vt 0.4577 0.1116 0.0000
vt 0.4878 0.4068 0.0000
vt 0.4592 0.4010 0.0000
vt 0.4093 0.4862 0.0000
vt 0.4032 0.4576 0.0000
vt 0.1080 0.4878 0.0000
vt 0.1138 0.4592 0.0000
vt 0.0286 0.4093 0.0000
vt 0.0572 0.4032 0.0000
vt 0.0628 0.0262 0.0000
vt 0.0643 0.0171 0.0000
vt 0.0241 0.0653 0.0000
vt 0.0150 0.0669 0.0000
vt 0.4495 0.0241 0.0000
vt 0.4480 0.0150 0.0000
vt 0.4977 0.0643 0.0000
vt 0.4886 0.0628 0.0000
vt 0.4998 0.4479 0.0000
vt 0.4907 0.4495 0.0000
vt 0.4506 0.4977 0.0000
vt 0.4520 0.4886 0.0000
vt 0.0669 0.4998 0.0000
vt 0.0653 0.4907 0.0000
vt 0.0171 0.4506 0.0000
vt 0.0262 0.4520 0.0000
# 112 texture coords

g Cylinder002
usemtl _Weapon_Weaponwire_229154215
s 1
f 1/1/1 2/2/1 3/3/1 4/4/1 
f 5/5/2 6/6/3 7/7/3 8/8/4 
f 9/9/5 10/10/5 11/11/5 12/12/5 
s 2
f 13/13/6 14/14/7 15/15/8 16/16/6 
s 1
f 17/17/9 18/18/9 19/19/9 20/20/9 
f 21/21/10 22/22/11 23/23/12 24/24/10 
f 25/25/13 26/26/13 27/27/13 28/28/13 
s 2
f 29/29/14 30/30/15 31/31/16 32/32/16 
s 4
f 33/33/17 34/34/17 30/30/17 6/6/17 
f 33/33/17 6/6/17 5/5/17 35/35/17 
f 35/35/17 5/5/17 16/16/17 36/36/17 
f 36/36/17 16/16/17 15/15/17 37/37/17 
f 24/24/17 38/38/17 37/37/17 15/15/17 
f 38/38/17 24/24/17 23/23/17 39/39/17 
f 40/40/17 39/39/17 23/23/17 31/31/17 
f 34/34/17 40/40/17 31/31/17 30/30/17 
s 2
f 6/6/1 41/41/1 42/42/1 7/43/1 
f 30/30/15 43/44/1 41/41/1 6/6/1 
f 29/45/14 44/46/1 43/44/1 30/30/15 
s 1
f 8/47/4 45/48/5 46/49/5 5/5/2 
f 47/50/5 13/51/5 16/16/5 48/52/5 
f 48/52/5 16/16/5 5/5/2 46/49/5 
s 2
f 14/53/7 49/54/9 50/55/9 15/15/8 
f 24/24/9 51/56/9 52/57/9 21/58/9 
f 24/24/9 15/15/8 50/55/9 51/56/9 
s 1
f 53/59/13 23/23/12 22/60/11 54/61/13 
f 55/62/13 56/63/13 32/64/13 31/31/13 
f 31/31/13 23/23/12 53/59/13 55/62/13 
s 4
f 57/65/18 42/42/18 41/41/18 58/66/18 
s 1
f 41/41/19 43/44/19 59/67/19 58/66/19 
s 4
f 43/44/20 44/46/20 60/68/20 59/67/20 
s 2
f 45/48/21 61/69/21 62/70/21 46/49/21 
f 47/50/22 48/52/22 63/71/22 64/72/22 
s 4
f 62/70/23 63/71/23 48/52/23 46/49/23 
s 1
f 50/55/24 49/54/24 65/73/24 66/74/24 
f 67/75/25 52/57/25 51/56/25 68/76/25 
s 4
f 68/76/26 51/56/26 50/55/26 66/74/26 
s 2
f 53/59/27 54/61/27 69/77/27 70/78/27 
f 56/63/28 55/62/28 71/79/28 72/80/28 
s 4
f 55/62/29 53/59/29 70/78/29 71/79/29 
s 2
f 57/65/1 58/66/1 73/81/30 74/82/1 
f 58/66/1 59/67/1 75/83/30 73/81/30 
f 76/84/1 75/83/30 59/67/1 60/68/1 
s 1
f 77/85/31 62/70/5 61/69/5 78/86/5 
f 79/87/5 64/72/5 63/71/5 80/88/31 
f 63/71/5 62/70/5 77/85/31 80/88/31 
s 2
f 65/73/9 81/89/9 82/90/32 66/74/9 
f 83/91/9 67/75/9 68/76/9 84/92/32 
f 68/76/9 66/74/9 82/90/32 84/92/32 
s 1
f 70/78/13 69/77/13 85/93/13 86/94/33 
f 87/95/13 72/80/13 71/79/13 88/96/33 
f 70/78/13 86/94/33 88/96/33 71/79/13 
s 8
f 74/82/34 73/81/34 89/97/35 90/98/36 
s 2
f 91/99/37 89/97/37 73/81/30 75/83/30 
s 8
f 75/83/38 76/84/38 92/100/39 91/99/40 
s 2
f 93/101/41 77/85/42 78/86/42 94/102/43 
f 95/103/44 79/87/45 80/88/45 96/104/46 
s 1
f 80/88/31 77/85/31 93/101/47 96/104/47 
s 4
f 82/90/48 81/89/48 97/105/49 98/106/50 
f 99/107/51 83/91/52 84/92/52 100/108/53 
s 2
f 84/92/32 82/90/32 98/106/54 100/108/54 
f 86/94/55 85/93/55 101/109/56 102/110/57 
f 103/111/58 87/95/59 88/96/59 104/112/60 
s 1
f 88/96/33 86/94/33 102/110/61 104/112/61 
s 8
f 2/2/5 90/98/36 89/97/35 3/3/5 
s 4
f 4/4/17 3/3/17 89/97/17 91/99/17 
s 8
f 92/100/39 1/1/13 4/4/13 91/99/40 
s 2
f 93/101/41 94/102/43 10/10/1 9/9/1 
f 12/12/9 11/11/9 95/103/44 96/104/46 
s 4
f 93/101/17 9/9/17 12/12/17 96/104/17 
f 17/17/5 20/20/5 98/106/50 97/105/49 
f 18/18/13 99/107/51 100/108/53 19/19/13 
s 8
f 20/20/17 19/19/17 100/108/17 98/106/17 
s 2
f 25/25/9 28/28/9 102/110/57 101/109/56 
f 103/111/58 104/112/60 27/27/1 26/26/1 
s 4
f 102/110/17 28/28/17 27/27/17 104/112/17 
# 76 polygons

